Coordinates
version=1
nRows=14
nColumns=63
inDegrees=yes

Units are S.I. units (second, meters, Newtons, ...)
If the header above contains a line with 'inDegrees', this indicates whether rotational values are in degrees (yes) or radians (no).

endheader
time	pelvis_tilt	pelvis_list	pelvis_rotation	pelvis_tx	pelvis_ty	pelvis_tz	hip_flexion_r	hip_adduction_r	hip_rotation_r	knee_angle_r	knee_angle_r_beta	ankle_angle_r	subtalar_angle_r	mtp_angle_r	hip_flexion_l	hip_adduction_l	hip_rotation_l	knee_angle_l	knee_angle_l_beta	ankle_angle_l	subtalar_angle_l	mtp_angle_l	L5_S1_Flex_Ext	L5_S1_Lat_Bending	L5_S1_axial_rotation	L4_L5_Flex_Ext	L4_L5_Lat_Bending	L4_L5_axial_rotation	L3_L4_Flex_Ext	L3_L4_Lat_Bending	L3_L4_axial_rotation	L2_L3_Flex_Ext	L2_L3_Lat_Bending	L2_L3_axial_rotation	L1_L2_Flex_Ext	L1_L2_Lat_Bending	L1_L2_axial_rotation	L1_T12_Flex_Ext	L1_T12_Lat_Bending	L1_T12_axial_rotation	Abs_r3	Abs_r2	Abs_r1	Abs_t1	Abs_t2	neck_flexion	neck_bending	neck_rotation	arm_flex_r	arm_add_r	arm_rot_r	elbow_flex_r	pro_sup_r	wrist_flex_r	wrist_dev_r	arm_flex_l	arm_add_l	arm_rot_l	elbow_flex_l	pro_sup_l	wrist_flex_l	wrist_dev_l
3.949153	-0.065249	-4.210102	74.137361	0.230934	0.758827	0.703842	1.478999	-3.036098	4.156876	9.927563	0.173269	36.652782	17.586993	0.000000	-1.722012	3.610237	-11.858476	5.067803	0.088450	36.276674	-10.318023	0.000000	-0.193282	-0.115405	4.175523	-0.358944	-0.153488	4.436493	-0.317543	-0.280595	4.436493	-0.220902	-0.280595	3.653582	-0.179482	-0.235334	3.392612	-0.110441	-0.178762	3.131642	-1.380594	-1.305483	23.223004	0.000000	0.000000	24.341295	-0.728051	3.321417	-2.123107	-9.616489	17.438522	29.211845	84.339271	-3.495588	8.383607	13.949133	-11.163220	87.756949	26.234754	46.560238	-21.882601	-11.629738
3.966102	-0.011276	-4.188910	73.810455	0.231257	0.758896	0.704156	1.550940	-2.974142	4.525670	9.987463	0.174314	36.715723	17.603210	0.000000	-1.739413	3.546201	-12.570912	5.124861	0.089446	36.420529	-9.857401	0.000000	-0.199958	-0.105075	4.232727	-0.371341	-0.139750	4.497272	-0.328510	-0.255479	4.497272	-0.228532	-0.255479	3.703636	-0.185681	-0.214269	3.439090	-0.114256	-0.162761	3.174545	-1.428277	-1.188628	23.541156	0.000000	0.000000	24.321278	-0.795786	3.495328	-2.377386	-9.714576	16.926923	29.502114	85.050502	-3.752260	8.609479	14.591819	-11.161977	92.218274	25.891914	41.628033	-22.886768	-13.019388
3.983051	0.048524	-4.189464	73.533938	0.231559	0.758924	0.704517	1.635588	-2.899201	4.857212	10.042547	0.175276	36.723151	17.575403	0.000000	-1.725372	3.466508	-13.208290	5.195330	0.090676	36.541554	-9.471673	0.000000	-0.204791	-0.095132	4.280521	-0.380317	-0.126525	4.548054	-0.336451	-0.231303	4.548054	-0.234055	-0.231303	3.745456	-0.190169	-0.193992	3.477924	-0.117017	-0.147359	3.210391	-1.462800	-1.076147	23.806975	0.000000	0.000000	24.309563	-0.872528	3.612711	-2.573757	-9.792589	16.578183	29.741808	85.526227	-4.014411	8.661915	15.025298	-11.159800	95.391135	25.660093	37.880625	-23.656762	-14.002289
4.000000	0.108611	-4.209323	73.333520	0.231834	0.758933	0.704921	1.724837	-2.816395	5.131797	10.084144	0.176002	36.670385	17.497589	0.000000	-1.675762	3.370420	-13.793664	5.291426	0.092353	36.650753	-9.083844	0.000000	-0.207988	-0.086534	4.318329	-0.386254	-0.115090	4.588225	-0.341703	-0.210399	4.588225	-0.237709	-0.210399	3.778538	-0.193137	-0.176460	3.508643	-0.118844	-0.134041	3.238747	-1.485636	-0.978890	24.017252	0.000000	0.000000	24.306416	-0.928325	3.690906	-2.712015	-9.823184	16.305346	29.920542	85.887833	-4.220522	8.531956	15.405594	-11.137549	97.968465	25.456005	34.654207	-24.369153	-14.802119
4.016949	0.162454	-4.253198	73.227624	0.232076	0.758909	0.705325	1.818025	-2.731198	5.326261	10.109679	0.176447	36.572364	17.374442	0.000000	-1.589640	3.269262	-14.219397	5.402552	0.094292	36.708965	-8.823477	0.000000	-0.208776	-0.080689	4.341485	-0.387717	-0.107316	4.612828	-0.342997	-0.196187	4.612828	-0.238610	-0.196187	3.798800	-0.193869	-0.164541	3.527457	-0.119294	-0.124987	3.256114	-1.491263	-0.912769	24.146039	0.000000	0.000000	24.333091	-0.963133	3.707333	-2.759040	-9.816939	16.336973	30.006625	85.955102	-4.477891	8.079293	15.579474	-11.123211	98.916323	25.437115	33.326527	-24.530588	-14.784942
4.033898	0.209378	-4.318752	73.184965	0.232306	0.758877	0.705724	1.913701	-2.648175	5.439303	10.113993	0.176522	36.418290	17.240475	0.000000	-1.470875	3.161933	-14.609894	5.529060	0.096500	36.748253	-8.567203	0.000000	-0.207008	-0.077425	4.352417	-0.384435	-0.102975	4.624443	-0.340094	-0.188251	4.624443	-0.236590	-0.188251	3.808365	-0.192228	-0.157885	3.536339	-0.118285	-0.119931	3.264313	-1.478639	-0.875848	24.206839	0.000000	0.000000	24.370750	-0.964503	3.680546	-2.677167	-9.781184	16.788681	29.987658	85.721306	-4.824308	7.358055	15.606387	-11.091146	98.418544	25.528863	33.674005	-24.146262	-14.138875
4.050847	0.247261	-4.399508	73.258937	0.232484	0.758829	0.706074	1.989372	-2.570607	5.432445	10.088073	0.176070	36.219752	17.077918	0.000000	-1.323882	3.054501	-14.817836	5.674683	0.099042	36.734287	-8.443222	0.000000	-0.204047	-0.077760	4.350388	-0.378936	-0.103420	4.622287	-0.335229	-0.189065	4.622287	-0.233206	-0.189065	3.806590	-0.189478	-0.158568	3.534690	-0.116593	-0.120450	3.262791	-1.457490	-0.879633	24.195553	0.000000	0.000000	24.444809	-0.954513	3.528317	-2.538904	-9.679873	17.287672	29.971535	85.614084	-5.292943	6.461192	15.661918	-11.087202	97.226895	25.739176	35.135137	-23.382856	-13.071284
4.067797	0.280600	-4.500294	73.386146	0.232669	0.758787	0.706397	2.061782	-2.493184	5.350807	10.042188	0.175269	35.989124	16.907938	0.000000	-1.158371	2.944401	-14.898380	5.816483	0.101517	36.668259	-8.452733	0.000000	-0.197780	-0.080035	4.341937	-0.367297	-0.106447	4.613308	-0.324932	-0.194598	4.613308	-0.226042	-0.194598	3.799195	-0.183658	-0.163208	3.527824	-0.113011	-0.123975	3.256453	-1.412721	-0.905374	24.148552	0.000000	0.000000	24.509184	-0.962797	3.335362	-2.263648	-9.524053	18.112312	29.826397	85.512857	-5.995031	5.189756	15.726993	-11.057552	95.044631	26.041147	38.431291	-22.240088	-11.366082
4.084746	0.298417	-4.611917	73.591780	0.232845	0.758735	0.706631	2.110145	-2.429185	5.183237	9.965850	0.173937	35.736021	16.714476	0.000000	-0.983767	2.845853	-14.836531	5.955101	0.103936	36.555074	-8.574345	0.000000	-0.189159	-0.086724	4.322252	-0.351287	-0.115344	4.592393	-0.310770	-0.210862	4.592393	-0.216190	-0.210862	3.781971	-0.175653	-0.176849	3.511830	-0.108086	-0.134336	3.241689	-1.351145	-0.981045	24.039070	0.000000	0.000000	24.596746	-0.936095	3.049833	-1.879650	-9.320122	19.223002	29.683277	85.391178	-6.939565	3.780121	15.755420	-11.036200	91.815078	26.473999	43.487479	-20.870717	-9.308527
4.101695	0.305730	-4.728498	73.877766	0.232998	0.758670	0.706799	2.129926	-2.377001	4.916947	9.862081	0.172126	35.472314	16.527235	0.000000	-0.801784	2.753439	-14.658667	6.097291	0.106418	36.415070	-8.746885	0.000000	-0.179082	-0.096874	4.293762	-0.332572	-0.128843	4.562122	-0.294213	-0.235540	4.562122	-0.204672	-0.235540	3.757042	-0.166295	-0.197546	3.488682	-0.102327	-0.150058	3.220322	-1.279161	-1.095862	23.880617	0.000000	0.000000	24.706989	-0.892238	2.667857	-1.433256	-9.040870	20.276911	29.634716	85.387265	-7.890068	2.390412	15.996594	-11.006831	89.142262	27.031536	48.291970	-19.646854	-7.347378
4.118644	0.306257	-4.852031	74.239539	0.233110	0.758581	0.706868	2.121141	-2.334720	4.546240	9.731338	0.169844	35.210881	16.362963	0.000000	-0.616118	2.667192	-14.361875	6.233817	0.108801	36.256873	-8.958562	0.000000	-0.166928	-0.109452	4.246749	-0.310002	-0.145571	4.512171	-0.274246	-0.266121	4.512171	-0.190782	-0.266121	3.715906	-0.155009	-0.223194	3.450484	-0.095383	-0.169541	3.185062	-1.192350	-1.238140	23.619145	0.000000	0.000000	24.849519	-0.799096	2.269443	-0.912756	-8.692238	21.273730	29.733283	85.404486	-8.726278	1.195283	16.153244	-10.950305	85.682540	27.724479	53.943737	-18.129357	-5.199374
4.135593	0.299539	-4.978462	74.665154	0.233182	0.758468	0.706848	2.083668	-2.303777	4.075601	9.577126	0.167152	34.963823	16.240332	0.000000	-0.427832	2.588247	-13.957191	6.368894	0.111158	36.093888	-9.190638	0.000000	-0.152902	-0.124186	4.185909	-0.283954	-0.165167	4.447529	-0.251202	-0.301945	4.447529	-0.174752	-0.301945	3.662671	-0.141985	-0.253239	3.401051	-0.087368	-0.192363	3.139432	-1.092163	-1.404812	23.280773	0.000000	0.000000	25.026146	-0.665896	1.847988	-0.310325	-8.308434	22.271014	30.016712	85.177363	-9.430017	0.246872	16.297837	-10.883784	81.930921	28.509851	59.628969	-16.391492	-2.995182
4.152542	0.283105	-5.106020	75.147328	0.233218	0.758325	0.706739	2.018673	-2.286180	3.523436	9.399876	0.164059	34.738570	16.150013	0.000000	-0.244646	2.524743	-13.415028	6.487437	0.113227	35.919789	-9.477940	0.000000	-0.137168	-0.141275	4.113918	-0.254734	-0.187895	4.371037	-0.225353	-0.343495	4.371037	-0.156769	-0.343495	3.599678	-0.127374	-0.288087	3.342558	-0.078378	-0.218834	3.085438	-0.979776	-1.598127	22.880375	0.000000	0.000000	25.235356	-0.487572	1.396939	0.334388	-7.855861	23.031181	30.536986	84.795601	-9.945651	-0.361482	16.492883	-10.778759	78.578360	29.417187	64.330522	-14.531363	-0.916922
4.169492	0.260657	-5.233489	75.692869	0.233194	0.758155	0.706555	1.927752	-2.276542	2.894760	9.202303	0.160610	34.539154	16.083526	0.000000	-0.061361	2.471964	-12.757157	6.602081	0.115228	35.754945	-9.775625	0.000000	-0.120097	-0.159901	4.024193	-0.223033	-0.212669	4.275705	-0.197308	-0.388784	4.275705	-0.137259	-0.388784	3.521169	-0.111522	-0.326070	3.269657	-0.068624	-0.247687	3.018145	-0.857842	-1.808834	22.381354	0.000000	0.000000	25.475241	-0.260505	0.953671	1.053152	-7.362788	23.664893	31.258959	84.122457	-10.226036	-0.684393	16.636157	-10.653235	75.202971	30.384353	68.258568	-12.343222	1.178464
